ffmpeg started on 2026-01-13 at 09:29:11
Report written to "D:\Convert\FFMetrics\reports\psnr_report-6.txt"
Log level: 32
Command line:
ffmpeg -hide_banner -nostdin -r 24000/1001 -i "F:\\Convert\\files\\[DC] Make Heroine ga Oosugiru - 07_Telegram_HEVC(100).mkv" -r 24000/1001 -i "F:\\Convert\\files\\[DC] Make Heroine ga Oosugiru - 07_Telegram.mp4" -lavfi "[0:v]settb=AVTB,setpts=PTS-STARTPTS,format=pix_fmts=yuv420p10le,fps=24000/1001,scale=1920:1080:flags=lanczos:param0=3:out_range=limited:out_color_matrix=bt709:out_chroma_loc=left,setsar=1/1,setdar=(1920/1080)*(1/1),colorspace=format=yuv420p10:range=tv:primaries=bt709:trc=bt709:space=bt709:fast=0[main];[1:v]settb=AVTB,setpts=PTS-STARTPTS,format=pix_fmts=yuv420p,fps=24000/1001,scale=1920:1080:flags=lanczos:param0=3:out_range=limited:out_color_matrix=bt709:out_chroma_loc=left,setsar=1.000,setdar=1.778,colorspace=format=yuv420p:range=tv:primaries=bt709:trc=bt709:space=bt709:fast=0[ref];[main][ref]psnr=eof_action=endall:stats_file='D\\:/Convert/FFMetrics/logs/psnr_logfile-6.txt'" -f null -
Input #0, matroska,webm, from 'F:\Convert\files\[DC] Make Heroine ga Oosugiru - 07_Telegram_HEVC(100).mkv':
  Metadata:
    COMPATIBLE_BRANDS: isomiso2avc1mp41
    MAJOR_BRAND     : isom
    MINOR_VERSION   : 512
    ENCODER         : Lavf61.7.100
  Duration: 00:24:06.79, start: -0.021000, bitrate: 990 kb/s
  Stream #0:0: Video: hevc (Main 10), yuv420p10le(tv, bt709, progressive), 1920x1080 [SAR 1:1 DAR 16:9], 23.98 fps, 23.98 tbr, 1k tbn (default)
      Metadata:
        HANDLER_NAME    : VideoHandler
        VENDOR_ID       : [0][0][0][0]
        ENCODER         : Lavc61.19.100 libx265
        BPS             : 793159
        DURATION        : 00:24:06.569708333
        NUMBER_OF_FRAMES: 34683
        NUMBER_OF_BYTES : 143420020
        _STATISTICS_WRITING_APP: mkvpropedit v94.0 ('Initiate') 64-bit
        _STATISTICS_WRITING_DATE_UTC: 2026-01-12 11:10:22
        _STATISTICS_TAGS: BPS DURATION NUMBER_OF_FRAMES NUMBER_OF_BYTES
  Stream #0:1: Audio: aac (LC), 48000 Hz, stereo, fltp (default)
      Metadata:
        HANDLER_NAME    : SoundHandler
        VENDOR_ID       : [0][0][0][0]
        ENCODER         : Lavc61.19.100 aac
        BPS             : 193194
        DURATION        : 00:24:06.784000000
        NUMBER_OF_FRAMES: 67819
        NUMBER_OF_BYTES : 34938755
        _STATISTICS_WRITING_APP: mkvpropedit v94.0 ('Initiate') 64-bit
        _STATISTICS_WRITING_DATE_UTC: 2026-01-12 11:10:22
        _STATISTICS_TAGS: BPS DURATION NUMBER_OF_FRAMES NUMBER_OF_BYTES
Input #1, mov,mp4,m4a,3gp,3g2,mj2, from 'F:\Convert\files\[DC] Make Heroine ga Oosugiru - 07_Telegram.mp4':
  Metadata:
    major_brand     : isom
    minor_version   : 512
    compatible_brands: isomiso2avc1mp41
    encoder         : Lavf60.16.100
  Duration: 00:24:06.74, start: 0.000000, bitrate: 3764 kb/s
  Stream #1:0[0x1](und): Video: h264 (High) (avc1 / 0x31637661), yuv420p(tv, bt709, progressive), 1920x1080 [SAR 1:1 DAR 16:9], 3616 kb/s, 23.98 fps, 23.98 tbr, 24k tbn (default)
      Metadata:
        handler_name    : VideoHandler
        vendor_id       : [0][0][0][0]
        encoder         : Lavc60.31.102 h264_qsv
  Stream #1:1[0x2](und): Audio: aac (HE-AACv2) (mp4a / 0x6134706D), 48000 Hz, stereo, fltp, 144 kb/s (default)
      Metadata:
        handler_name    : SoundHandler
        vendor_id       : [0][0][0][0]
Stream mapping:
  Stream #0:0 (hevc) -> settb:default
  Stream #1:0 (h264) -> settb:default
  psnr:default -> Stream #0:0 (wrapped_avframe)
  Stream #0:1 -> #0:1 (aac (native) -> pcm_s16le (native))
Output #0, null, to 'pipe:':
  Metadata:
    COMPATIBLE_BRANDS: isomiso2avc1mp41
    MAJOR_BRAND     : isom
    MINOR_VERSION   : 512
    encoder         : Lavf61.7.100
  Stream #0:0: Video: wrapped_avframe, yuv420p10le(tv, bt709, progressive), 1920x1080 [SAR 1:1 DAR 16:9], q=2-31, 200 kb/s, 23.98 fps, 23.98 tbn
      Metadata:
        encoder         : Lavc61.19.100 wrapped_avframe
  Stream #0:1: Audio: pcm_s16le, 48000 Hz, stereo, s16, 1536 kb/s (default)
      Metadata:
        HANDLER_NAME    : SoundHandler
        VENDOR_ID       : [0][0][0][0]
        _STATISTICS_TAGS: BPS DURATION NUMBER_OF_FRAMES NUMBER_OF_BYTES
        BPS             : 193194
        DURATION        : 00:24:06.784000000
        NUMBER_OF_FRAMES: 67819
        NUMBER_OF_BYTES : 34938755
        _STATISTICS_WRITING_APP: mkvpropedit v94.0 ('Initiate') 64-bit
        _STATISTICS_WRITING_DATE_UTC: 2026-01-12 11:10:22
        encoder         : Lavc61.19.100 pcm_s16le
frame=  134 fps=0.0 q=-0.0 size=N/A time=00:00:05.58 bitrate=N/A speed=  11x    frame=  327 fps=321 q=-0.0 size=N/A time=00:00:13.63 bitrate=N/A speed=13.4x    frame=  525 fps=340 q=-0.0 size=N/A time=00:00:21.89 bitrate=N/A speed=14.2x    frame=  723 fps=351 q=-0.0 size=N/A time=00:00:30.15 bitrate=N/A speed=14.7x    frame=  904 fps=352 q=-0.0 size=N/A time=00:00:37.74 bitrate=N/A speed=14.7x    frame= 1049 fps=340 q=-0.0 size=N/A time=00:00:43.75 bitrate=N/A speed=14.2x    frame= 1214 fps=336 q=-0.0 size=N/A time=00:00:50.63 bitrate=N/A speed=  14x    frame= 1375 fps=334 q=-0.0 size=N/A time=00:00:57.34 bitrate=N/A speed=13.9x    frame= 1531 fps=331 q=-0.0 size=N/A time=00:01:03.85 bitrate=N/A speed=13.8x    frame= 1669 fps=324 q=-0.0 size=N/A time=00:01:09.61 bitrate=N/A speed=13.5x    frame= 1842 fps=325 q=-0.0 size=N/A time=00:01:16.82 bitrate=N/A speed=13.5x    frame= 2004 fps=324 q=-0.0 size=N/A time=00:01:23.58 bitrate=N/A speed=13.5x    frame= 2111 fps=315 q=-0.0 size=N/A time=00:01:28.04 bitrate=N/A speed=13.2x    frame= 2265 fps=314 q=-0.0 size=N/A time=00:01:34.46 bitrate=N/A speed=13.1x    frame= 2412 fps=312 q=-0.0 size=N/A time=00:01:40.60 bitrate=N/A speed=  13x    frame= 2547 fps=309 q=-0.0 size=N/A time=00:01:46.23 bitrate=N/A speed=12.9x    frame= 2711 fps=310 q=-0.0 size=N/A time=00:01:53.07 bitrate=N/A speed=12.9x    frame= 2883 fps=311 q=-0.0 size=N/A time=00:02:00.24 bitrate=N/A speed=  13x    frame= 3079 fps=314 q=-0.0 size=N/A time=00:02:08.41 bitrate=N/A speed=13.1x    frame= 3268 fps=317 q=-0.0 size=N/A time=00:02:16.30 bitrate=N/A speed=13.2x    frame= 3464 fps=320 q=-0.0 size=N/A time=00:02:24.47 bitrate=N/A speed=13.4x    frame= 3661 fps=323 q=-0.0 size=N/A time=00:02:32.69 bitrate=N/A speed=13.5x    frame= 3867 fps=326 q=-0.0 size=N/A time=00:02:41.28 bitrate=N/A speed=13.6x    frame= 4057 fps=328 q=-0.0 size=N/A time=00:02:49.21 bitrate=N/A speed=13.7x    frame= 4258 fps=331 q=-0.0 size=N/A time=00:02:57.59 bitrate=N/A speed=13.8x    frame= 4448 fps=332 q=-0.0 size=N/A time=00:03:05.51 bitrate=N/A speed=13.8x    frame= 4650 fps=334 q=-0.0 size=N/A time=00:03:13.94 bitrate=N/A speed=13.9x    frame= 4847 fps=336 q=-0.0 size=N/A time=00:03:22.16 bitrate=N/A speed=  14x    frame= 5037 fps=337 q=-0.0 size=N/A time=00:03:30.08 bitrate=N/A speed=14.1x    frame= 5235 fps=338 q=-0.0 size=N/A time=00:03:38.34 bitrate=N/A speed=14.1x    frame= 5434 fps=340 q=-0.0 size=N/A time=00:03:46.64 bitrate=N/A speed=14.2x    frame= 5631 fps=341 q=-0.0 size=N/A time=00:03:54.85 bitrate=N/A speed=14.2x    frame= 5821 fps=342 q=-0.0 size=N/A time=00:04:02.78 bitrate=N/A speed=14.3x    frame= 6013 fps=343 q=-0.0 size=N/A time=00:04:10.79 bitrate=N/A speed=14.3x    frame= 6216 fps=344 q=-0.0 size=N/A time=00:04:19.25 bitrate=N/A speed=14.4x    frame= 6409 fps=345 q=-0.0 size=N/A time=00:04:27.30 bitrate=N/A speed=14.4x    frame= 6605 fps=346 q=-0.0 size=N/A time=00:04:35.48 bitrate=N/A speed=14.4x    frame= 6798 fps=347 q=-0.0 size=N/A time=00:04:43.53 bitrate=N/A speed=14.5x    frame= 6990 fps=348 q=-0.0 size=N/A time=00:04:51.54 bitrate=N/A speed=14.5x    frame= 7183 fps=348 q=-0.0 size=N/A time=00:04:59.59 bitrate=N/A speed=14.5x    frame= 7372 fps=349 q=-0.0 size=N/A time=00:05:07.47 bitrate=N/A speed=14.5x    frame= 7559 fps=349 q=-0.0 size=N/A time=00:05:15.27 bitrate=N/A speed=14.6x    frame= 7744 fps=349 q=-0.0 size=N/A time=00:05:22.98 bitrate=N/A speed=14.6x    frame= 7940 fps=350 q=-0.0 size=N/A time=00:05:31.16 bitrate=N/A speed=14.6x    frame= 8138 fps=350 q=-0.0 size=N/A time=00:05:39.42 bitrate=N/A speed=14.6x    frame= 8323 fps=350 q=-0.0 size=N/A time=00:05:47.13 bitrate=N/A speed=14.6x    frame= 8506 fps=351 q=-0.0 size=N/A time=00:05:54.77 bitrate=N/A speed=14.6x    frame= 8704 fps=351 q=-0.0 size=N/A time=00:06:03.02 bitrate=N/A speed=14.6x    frame= 8889 fps=351 q=-0.0 size=N/A time=00:06:10.74 bitrate=N/A speed=14.7x    frame= 9074 fps=352 q=-0.0 size=N/A time=00:06:18.46 bitrate=N/A speed=14.7x    frame= 9266 fps=352 q=-0.0 size=N/A time=00:06:26.46 bitrate=N/A speed=14.7x    frame= 9462 fps=352 q=-0.0 size=N/A time=00:06:34.64 bitrate=N/A speed=14.7x    frame= 9655 fps=353 q=-0.0 size=N/A time=00:06:42.69 bitrate=N/A speed=14.7x    frame= 9844 fps=353 q=-0.0 size=N/A time=00:06:50.57 bitrate=N/A speed=14.7x    frame=10043 fps=354 q=-0.0 size=N/A time=00:06:58.87 bitrate=N/A speed=14.8x    frame=10228 fps=354 q=-0.0 size=N/A time=00:07:06.59 bitrate=N/A speed=14.8x    frame=10422 fps=354 q=-0.0 size=N/A time=00:07:14.68 bitrate=N/A speed=14.8x    frame=10611 fps=354 q=-0.0 size=N/A time=00:07:22.56 bitrate=N/A speed=14.8x    frame=10804 fps=355 q=-0.0 size=N/A time=00:07:30.61 bitrate=N/A speed=14.8x    frame=10995 fps=355 q=-0.0 size=N/A time=00:07:38.58 bitrate=N/A speed=14.8x    frame=11183 fps=355 q=-0.0 size=N/A time=00:07:46.42 bitrate=N/A speed=14.8x    frame=11377 fps=356 q=-0.0 size=N/A time=00:07:54.51 bitrate=N/A speed=14.8x    frame=11571 fps=356 q=-0.0 size=N/A time=00:08:02.60 bitrate=N/A speed=14.8x    frame=11767 fps=356 q=-0.0 size=N/A time=00:08:10.78 bitrate=N/A speed=14.9x    frame=11965 fps=357 q=-0.0 size=N/A time=00:08:19.04 bitrate=N/A speed=14.9x    frame=12160 fps=357 q=-0.0 size=N/A time=00:08:27.17 bitrate=N/A speed=14.9x    frame=12351 fps=357 q=-0.0 size=N/A time=00:08:35.13 bitrate=N/A speed=14.9x    frame=12543 fps=358 q=-0.0 size=N/A time=00:08:43.14 bitrate=N/A speed=14.9x    frame=12739 fps=358 q=-0.0 size=N/A time=00:08:51.32 bitrate=N/A speed=14.9x    frame=12927 fps=358 q=-0.0 size=N/A time=00:08:59.16 bitrate=N/A speed=14.9x    frame=13117 fps=358 q=-0.0 size=N/A time=00:09:07.08 bitrate=N/A speed=14.9x    frame=13304 fps=358 q=-0.0 size=N/A time=00:09:14.88 bitrate=N/A speed=14.9x    frame=13489 fps=358 q=-0.0 size=N/A time=00:09:22.60 bitrate=N/A speed=14.9x    frame=13691 fps=358 q=-0.0 size=N/A time=00:09:31.02 bitrate=N/A speed=14.9x    frame=13866 fps=358 q=-0.0 size=N/A time=00:09:38.32 bitrate=N/A speed=14.9x    frame=14058 fps=358 q=-0.0 size=N/A time=00:09:46.33 bitrate=N/A speed=14.9x    frame=14234 fps=358 q=-0.0 size=N/A time=00:09:53.67 bitrate=N/A speed=14.9x    frame=14424 fps=358 q=-0.0 size=N/A time=00:10:01.60 bitrate=N/A speed=14.9x    frame=14621 fps=359 q=-0.0 size=N/A time=00:10:09.81 bitrate=N/A speed=  15x    frame=14817 fps=359 q=-0.0 size=N/A time=00:10:17.99 bitrate=N/A speed=  15x    frame=15001 fps=359 q=-0.0 size=N/A time=00:10:25.66 bitrate=N/A speed=  15x    frame=15166 fps=358 q=-0.0 size=N/A time=00:10:32.54 bitrate=N/A speed=14.9x    frame=15347 fps=358 q=-0.0 size=N/A time=00:10:40.09 bitrate=N/A speed=14.9x    frame=15537 fps=358 q=-0.0 size=N/A time=00:10:48.02 bitrate=N/A speed=14.9x    frame=15740 fps=359 q=-0.0 size=N/A time=00:10:56.48 bitrate=N/A speed=  15x    frame=15932 fps=359 q=-0.0 size=N/A time=00:11:04.49 bitrate=N/A speed=  15x    frame=16132 fps=359 q=-0.0 size=N/A time=00:11:12.83 bitrate=N/A speed=  15x    frame=16330 fps=360 q=-0.0 size=N/A time=00:11:21.09 bitrate=N/A speed=  15x    frame=16525 fps=360 q=-0.0 size=N/A time=00:11:29.23 bitrate=N/A speed=  15x    frame=16731 fps=360 q=-0.0 size=N/A time=00:11:37.82 bitrate=N/A speed=  15x    frame=16920 fps=360 q=-0.0 size=N/A time=00:11:45.70 bitrate=N/A speed=  15x    frame=17115 fps=360 q=-0.0 size=N/A time=00:11:53.83 bitrate=N/A speed=  15x    frame=17317 fps=361 q=-0.0 size=N/A time=00:12:02.26 bitrate=N/A speed=  15x    frame=17513 fps=361 q=-0.0 size=N/A time=00:12:10.43 bitrate=N/A speed=15.1x    frame=17699 fps=361 q=-0.0 size=N/A time=00:12:18.19 bitrate=N/A speed=15.1x    frame=17886 fps=361 q=-0.0 size=N/A time=00:12:25.99 bitrate=N/A speed=15.1x    frame=18086 fps=361 q=-0.0 size=N/A time=00:12:34.33 bitrate=N/A speed=15.1x    frame=18275 fps=361 q=-0.0 size=N/A time=00:12:42.21 bitrate=N/A speed=15.1x    frame=18471 fps=361 q=-0.0 size=N/A time=00:12:50.39 bitrate=N/A speed=15.1x    frame=18664 fps=362 q=-0.0 size=N/A time=00:12:58.44 bitrate=N/A speed=15.1x    frame=18867 fps=362 q=-0.0 size=N/A time=00:13:06.91 bitrate=N/A speed=15.1x    frame=19068 fps=362 q=-0.0 size=N/A time=00:13:15.29 bitrate=N/A speed=15.1x    frame=19266 fps=362 q=-0.0 size=N/A time=00:13:23.55 bitrate=N/A speed=15.1x    frame=19463 fps=362 q=-0.0 size=N/A time=00:13:31.76 bitrate=N/A speed=15.1x    frame=19663 fps=363 q=-0.0 size=N/A time=00:13:40.11 bitrate=N/A speed=15.1x    frame=19857 fps=363 q=-0.0 size=N/A time=00:13:48.20 bitrate=N/A speed=15.1x    frame=20051 fps=363 q=-0.0 size=N/A time=00:13:56.29 bitrate=N/A speed=15.1x    frame=20249 fps=363 q=-0.0 size=N/A time=00:14:04.55 bitrate=N/A speed=15.1x    frame=20445 fps=363 q=-0.0 size=N/A time=00:14:12.72 bitrate=N/A speed=15.2x    frame=20628 fps=363 q=-0.0 size=N/A time=00:14:20.35 bitrate=N/A speed=15.1x    frame=20820 fps=363 q=-0.0 size=N/A time=00:14:28.36 bitrate=N/A speed=15.2x    frame=21016 fps=363 q=-0.0 size=N/A time=00:14:36.54 bitrate=N/A speed=15.2x    frame=21224 fps=364 q=-0.0 size=N/A time=00:14:45.21 bitrate=N/A speed=15.2x    frame=21417 fps=364 q=-0.0 size=N/A time=00:14:53.26 bitrate=N/A speed=15.2x    frame=21611 fps=364 q=-0.0 size=N/A time=00:15:01.35 bitrate=N/A speed=15.2x    frame=21807 fps=364 q=-0.0 size=N/A time=00:15:09.53 bitrate=N/A speed=15.2x    frame=22011 fps=364 q=-0.0 size=N/A time=00:15:18.04 bitrate=N/A speed=15.2x    frame=22202 fps=364 q=-0.0 size=N/A time=00:15:26.00 bitrate=N/A speed=15.2x    frame=22404 fps=365 q=-0.0 size=N/A time=00:15:34.43 bitrate=N/A speed=15.2x    frame=22611 fps=365 q=-0.0 size=N/A time=00:15:43.06 bitrate=N/A speed=15.2x    frame=22799 fps=365 q=-0.0 size=N/A time=00:15:50.90 bitrate=N/A speed=15.2x    frame=22991 fps=365 q=-0.0 size=N/A time=00:15:58.91 bitrate=N/A speed=15.2x    frame=23197 fps=365 q=-0.0 size=N/A time=00:16:07.50 bitrate=N/A speed=15.2x    frame=23393 fps=365 q=-0.0 size=N/A time=00:16:15.68 bitrate=N/A speed=15.2x    frame=23592 fps=366 q=-0.0 size=N/A time=00:16:23.98 bitrate=N/A speed=15.2x    frame=23790 fps=366 q=-0.0 size=N/A time=00:16:32.24 bitrate=N/A speed=15.3x    frame=23988 fps=366 q=-0.0 size=N/A time=00:16:40.49 bitrate=N/A speed=15.3x    frame=24185 fps=366 q=-0.0 size=N/A time=00:16:48.71 bitrate=N/A speed=15.3x    frame=24381 fps=366 q=-0.0 size=N/A time=00:16:56.89 bitrate=N/A speed=15.3x    frame=24579 fps=366 q=-0.0 size=N/A time=00:17:05.14 bitrate=N/A speed=15.3x    frame=24787 fps=366 q=-0.0 size=N/A time=00:17:13.82 bitrate=N/A speed=15.3x    frame=24988 fps=367 q=-0.0 size=N/A time=00:17:22.20 bitrate=N/A speed=15.3x    frame=25186 fps=367 q=-0.0 size=N/A time=00:17:30.46 bitrate=N/A speed=15.3x    frame=25391 fps=367 q=-0.0 size=N/A time=00:17:39.01 bitrate=N/A speed=15.3x    frame=25594 fps=367 q=-0.0 size=N/A time=00:17:47.48 bitrate=N/A speed=15.3x    frame=25794 fps=367 q=-0.0 size=N/A time=00:17:55.82 bitrate=N/A speed=15.3x    frame=25997 fps=367 q=-0.0 size=N/A time=00:18:04.29 bitrate=N/A speed=15.3x    frame=26199 fps=368 q=-0.0 size=N/A time=00:18:12.71 bitrate=N/A speed=15.3x    frame=26399 fps=368 q=-0.0 size=N/A time=00:18:21.05 bitrate=N/A speed=15.3x    frame=26601 fps=368 q=-0.0 size=N/A time=00:18:29.48 bitrate=N/A speed=15.3x    frame=26807 fps=368 q=-0.0 size=N/A time=00:18:38.07 bitrate=N/A speed=15.4x    frame=26993 fps=368 q=-0.0 size=N/A time=00:18:45.83 bitrate=N/A speed=15.4x    frame=27181 fps=368 q=-0.0 size=N/A time=00:18:53.67 bitrate=N/A speed=15.4x    frame=27367 fps=368 q=-0.0 size=N/A time=00:19:01.43 bitrate=N/A speed=15.3x    frame=27557 fps=368 q=-0.0 size=N/A time=00:19:09.35 bitrate=N/A speed=15.3x    frame=27756 fps=368 q=-0.0 size=N/A time=00:19:17.65 bitrate=N/A speed=15.4x    frame=27949 fps=368 q=-0.0 size=N/A time=00:19:25.70 bitrate=N/A speed=15.4x    frame=28147 fps=368 q=-0.0 size=N/A time=00:19:33.96 bitrate=N/A speed=15.4x    frame=28343 fps=368 q=-0.0 size=N/A time=00:19:42.13 bitrate=N/A speed=15.4x    frame=28538 fps=368 q=-0.0 size=N/A time=00:19:50.27 bitrate=N/A speed=15.4x    frame=28722 fps=368 q=-0.0 size=N/A time=00:19:57.94 bitrate=N/A speed=15.4x    frame=28898 fps=368 q=-0.0 size=N/A time=00:20:05.28 bitrate=N/A speed=15.4x    frame=29069 fps=368 q=-0.0 size=N/A time=00:20:12.41 bitrate=N/A speed=15.3x    frame=29258 fps=368 q=-0.0 size=N/A time=00:20:20.30 bitrate=N/A speed=15.3x    frame=29440 fps=368 q=-0.0 size=N/A time=00:20:27.89 bitrate=N/A speed=15.3x    frame=29615 fps=368 q=-0.0 size=N/A time=00:20:35.19 bitrate=N/A speed=15.3x    frame=29790 fps=367 q=-0.0 size=N/A time=00:20:42.49 bitrate=N/A speed=15.3x    frame=29963 fps=367 q=-0.0 size=N/A time=00:20:49.70 bitrate=N/A speed=15.3x    frame=30131 fps=367 q=-0.0 size=N/A time=00:20:56.71 bitrate=N/A speed=15.3x    frame=30322 fps=367 q=-0.0 size=N/A time=00:21:04.68 bitrate=N/A speed=15.3x    frame=30512 fps=367 q=-0.0 size=N/A time=00:21:12.60 bitrate=N/A speed=15.3x    frame=30718 fps=367 q=-0.0 size=N/A time=00:21:21.19 bitrate=N/A speed=15.3x    frame=30915 fps=367 q=-0.0 size=N/A time=00:21:29.41 bitrate=N/A speed=15.3x    frame=31113 fps=367 q=-0.0 size=N/A time=00:21:37.67 bitrate=N/A speed=15.3x    frame=31312 fps=368 q=-0.0 size=N/A time=00:21:45.97 bitrate=N/A speed=15.3x    frame=31495 fps=367 q=-0.0 size=N/A time=00:21:53.60 bitrate=N/A speed=15.3x    frame=31695 fps=368 q=-0.0 size=N/A time=00:22:01.94 bitrate=N/A speed=15.3x    frame=31880 fps=367 q=-0.0 size=N/A time=00:22:09.66 bitrate=N/A speed=15.3x    frame=32061 fps=367 q=-0.0 size=N/A time=00:22:17.21 bitrate=N/A speed=15.3x    frame=32256 fps=368 q=-0.0 size=N/A time=00:22:25.34 bitrate=N/A speed=15.3x    frame=32459 fps=368 q=-0.0 size=N/A time=00:22:33.81 bitrate=N/A speed=15.3x    frame=32645 fps=368 q=-0.0 size=N/A time=00:22:41.56 bitrate=N/A speed=15.3x    frame=32795 fps=367 q=-0.0 size=N/A time=00:22:47.82 bitrate=N/A speed=15.3x    frame=32963 fps=367 q=-0.0 size=N/A time=00:22:54.83 bitrate=N/A speed=15.3x    frame=33145 fps=367 q=-0.0 size=N/A time=00:23:02.42 bitrate=N/A speed=15.3x    frame=33340 fps=367 q=-0.0 size=N/A time=00:23:10.55 bitrate=N/A speed=15.3x    frame=33502 fps=367 q=-0.0 size=N/A time=00:23:17.31 bitrate=N/A speed=15.3x    frame=33649 fps=366 q=-0.0 size=N/A time=00:23:23.44 bitrate=N/A speed=15.3x    frame=33790 fps=366 q=-0.0 size=N/A time=00:23:29.32 bitrate=N/A speed=15.2x    frame=33921 fps=365 q=-0.0 size=N/A time=00:23:34.78 bitrate=N/A speed=15.2x    frame=34082 fps=365 q=-0.0 size=N/A time=00:23:41.50 bitrate=N/A speed=15.2x    frame=34249 fps=364 q=-0.0 size=N/A time=00:23:48.46 bitrate=N/A speed=15.2x    frame=34377 fps=364 q=-0.0 size=N/A time=00:23:53.80 bitrate=N/A speed=15.2x    frame=34526 fps=363 q=-0.0 size=N/A time=00:24:00.02 bitrate=N/A speed=15.2x    [Parsed_psnr_16 @ 000002405cb8de00] PSNR y:48.951639 u:50.329558 v:50.379187 average:49.370794 min:37.961855 max:inf
[out#0/null @ 000002404fa58a00] video:14903KiB audio:271276KiB subtitle:0KiB other streams:0KiB global headers:0KiB muxing overhead: unknown
frame=34683 fps=364 q=-0.0 Lsize=N/A time=00:24:06.57 bitrate=N/A speed=15.2x    
